<svg width="1024" height="1024" viewBox="0 0 1024 1024" fill="none" xmlns="http://www.w3.org/2000/svg">
<rect width="1024" height="1024" fill="#FFD951"/>
<path d="M361.702 297V509.381L409.045 480.367V381.72L509.802 445.551L615.414 381.72V480.367L661.543 509.381V297L509.802 389.844L361.702 297Z" fill="#635D26"/>
<path d="M354.746 555.803L318 575.655L512.229 727.565L706.459 575.655L668.663 555.803L512.229 673.188L354.746 555.803Z" fill="#635D26"/>
<path d="M429.682 532.592L421.185 541.877L480.667 595.262C472.979 575.919 455.175 536.306 445.463 532.592C435.752 528.878 430.896 531.045 429.682 532.592Z" fill="#635D26"/>
<path d="M594.777 532.322L603.275 541.606L543.792 594.991C551.48 575.649 569.285 536.035 578.996 532.322C588.708 528.608 593.563 530.774 594.777 532.322Z" fill="#635D26"/>
<path d="M115.828 452.322V382.179C115.828 380.531 116.961 379.707 119.227 379.707C121.493 379.707 122.626 380.531 122.626 382.179V418.641L152.393 380.737C152.874 380.05 153.595 379.707 154.556 379.707C155.38 379.707 156.204 380.085 157.028 380.84C157.852 381.595 158.264 382.385 158.264 383.209C158.264 383.827 158.092 384.342 157.749 384.754L135.604 412.255L160.942 450.365C161.217 450.914 161.354 451.361 161.354 451.704C161.354 452.597 160.942 453.421 160.118 454.176C159.294 454.863 158.401 455.206 157.44 455.206C156.479 455.206 155.62 454.691 154.865 453.661L131.072 417.92L122.626 428.632V452.322C122.626 453.146 122.283 453.798 121.596 454.279C120.909 454.76 120.12 455 119.227 455C118.266 455 117.442 454.76 116.755 454.279C116.137 453.798 115.828 453.146 115.828 452.322ZM202.601 452.322V382.179C202.601 380.531 203.734 379.707 206 379.707C208.266 379.707 209.399 380.531 209.399 382.179V412.976H239.166V382.179C239.166 380.531 240.299 379.707 242.565 379.707C244.831 379.707 245.964 380.531 245.964 382.179V452.322C245.964 453.146 245.621 453.798 244.934 454.279C244.248 454.76 243.458 455 242.565 455C241.604 455 240.78 454.76 240.093 454.279C239.475 453.798 239.166 453.146 239.166 452.322V418.847H209.399V452.322C209.399 453.146 209.056 453.798 208.369 454.279C207.683 454.76 206.893 455 206 455C205.039 455 204.215 454.76 203.528 454.279C202.91 453.798 202.601 453.146 202.601 452.322ZM294.605 452.322V382.179C294.605 380.531 295.738 379.707 298.004 379.707C300.27 379.707 301.403 380.531 301.403 382.179V452.322C301.403 453.146 301.06 453.798 300.373 454.279C299.687 454.76 298.897 455 298.004 455C297.043 455 296.219 454.76 295.532 454.279C294.914 453.798 294.605 453.146 294.605 452.322Z" fill="#635D26"/>
<path d="M724.828 463.322V393.282C724.828 392.458 725.137 391.84 725.755 391.428C726.373 390.947 727.094 390.707 727.918 390.707H764.586C766.303 390.707 767.161 391.703 767.161 393.694C767.161 394.587 766.921 395.376 766.44 396.063C766.028 396.681 765.41 396.99 764.586 396.99H731.626V425.315H747.797C748.621 425.315 749.239 425.624 749.651 426.242C750.132 426.791 750.372 427.512 750.372 428.405C750.372 430.259 749.514 431.186 747.797 431.186H731.626V459.717H764.586C765.341 459.717 765.959 460.026 766.44 460.644C766.921 461.262 767.161 462.017 767.161 462.91C767.161 464.97 766.303 466 764.586 466H727.918C727.094 466 726.373 465.76 725.755 465.279C725.137 464.798 724.828 464.146 724.828 463.322ZM810.093 463.322V393.179C810.093 391.668 810.951 390.844 812.668 390.707H830.899C837.559 390.707 842.915 392.286 846.967 395.445C851.087 398.604 853.147 403.788 853.147 410.998C853.147 422.397 847.791 429.023 837.079 430.877L852.941 461.365C853.215 461.708 853.353 462.155 853.353 462.704C853.353 463.597 852.941 464.421 852.117 465.176C851.293 465.863 850.4 466.206 849.439 466.206C848.203 466.206 847.001 465.004 845.834 462.601L829.972 431.701H816.891V463.322C816.891 464.146 816.547 464.798 815.861 465.279C815.174 465.76 814.384 466 813.492 466C812.53 466 811.706 465.76 811.02 465.279C810.402 464.798 810.093 464.146 810.093 463.322ZM816.891 425.83H830.899C841.199 425.83 846.349 420.989 846.349 411.307C846.349 401.762 841.199 396.99 830.899 396.99H816.891V425.83ZM891.905 463.116C891.905 462.773 891.94 462.532 892.008 462.395L913.535 392.458C914.016 390.879 915.355 390.089 917.552 390.089C919.75 390.089 921.123 390.879 921.672 392.458L943.096 462.395C943.096 462.464 943.096 462.567 943.096 462.704C943.165 462.841 943.199 462.944 943.199 463.013C943.199 463.837 942.753 464.558 941.86 465.176C940.968 465.725 940.041 466 939.079 466C937.775 466 936.916 465.416 936.504 464.249L931.766 448.387H903.235L898.497 464.249C898.223 465.416 897.33 466 895.819 466C894.858 466 893.965 465.725 893.141 465.176C892.317 464.627 891.905 463.94 891.905 463.116ZM904.986 442.516H930.015L917.552 401.007L904.986 442.516Z" fill="#635D26"/>
</svg>
